/* XPM */
static char * wall_xpm[] = {
"100 100 13 1",
" 	c #565C63",
".	c #4A4F55",
"+	c #2B2F32",
"@	c #575D64",
"#	c #2B2F33",
"$	c #3F4349",
"%	c #23262A",
"&	c #24272B",
"*	c #131517",
"=	c #4A4F56",
"-	c #4B5056",
";	c #3F4449",
">	c #000000",
"                             .++.                                .++.                               ",
"                             .++.                                .++.                               ",
"                             .++.                                .++.                               ",
"                             .++.                                .++.                               ",
"                             .++.                                .++.                               ",
"                             .++.                                .++.                               ",
"                             .++.                                .++.                               ",
"                             .++.                                .++.                               ",
"                             .++.                                .++.                               ",
"                             .++.                                .++.                               ",
"                             .++.                                .++.                               ",
"                             .++.                                .++.                               ",
"                             .++.                                .++.                               ",
"                             .++.                                .++.                               ",
"                             .++.                                .++.                               ",
"                             .++.                                .++.                               ",
"                             .++.                                .++.                               ",
"                             .++.                                .++.                               ",
"                             .++.                                .++.                               ",
"                             .++.                                .++.                               ",
"                             .++.                                .++.                               ",
"                           @ .##. @                            @ .##. @                             ",
"                             .++.                                .++.                               ",
".............................$%%$................................$%%$...............................",
"+++++++++++++++++++++++++++#+&**&+#++++++++++++++++++++++++++++#+&**&+#+++++++++++++++++++++++++++++",
"+++++++++++++#+&**&+#++++++++++++++++++++++++#+&**&+#++++++++++++++++++++++++++#+&**&+#+++++++++++++",
"...............$%%$............................$%%$..............................$%%$...............",
"               .++.                            .++.                              .++.               ",
"             @ .##. @                        @ .##. @                          @ .##. @             ",
"               .++.                            .++.                              .++.               ",
"               .++.                            .++.                              .++.               ",
"               .++.                            .++.                              .++.               ",
"               .++.                            .++.                              .++.               ",
"               .++.                            .++.                              .++.               ",
"               .++.                            .++.                              .++.               ",
"               .++.                            .++.                              .++.               ",
"               .++.                            .++.                              .++.               ",
"               .++.                            .++.                              .++.               ",
"               .++.                            .++.                              .++.               ",
"               .++.                            .++.                              .++.               ",
"               .++.                            .++.                              .++.               ",
"               .++.                            .++.                              .++.               ",
"               .++.                            .++.                              .++.               ",
"               .++.                            .++.                              .++.               ",
"               .++.                            .++.                              .++.               ",
"               .++.                            .++.                              .++.               ",
"               .++.                            .++.                              .++.               ",
"             @ .##. @                        @ .##. @                          @ .##. @             ",
"               .++.                            .++.                              .++.               ",
"...............$%%$............................$%%$..............................$%%$...............",
"+++++++++++++#+&**&+#++++++++++++++++++++++++#+&**&+#++++++++++++++++++++++++++#+&**&+#+++++++++++++",
"+++++++++++++++++++++++++++#+&**&+#++++++++++++++++++++++++++++#+&**&+#+++++++++++++++++++++++++++++",
".............................$%%$................................$%%$...............................",
"                             .++.                                .++.                               ",
"                           @ .##. @                            @ .##. @                             ",
"                             .++.                                .++.                               ",
"                             .++.                                .++.                               ",
"                             .++.                                .++.                               ",
"                             .++.                                .++.                               ",
"                             .++.                                .++.                               ",
"                             .++.                                .++.                               ",
"                             .++.                                .++.                               ",
"                             .++.                                .++.                               ",
"                             .++.                                .++.                               ",
"                             .++.                                .++.                               ",
"                             .++.                                .++.                               ",
"                             .++.                                .++.                               ",
"                             .++.                                .++.                               ",
"                             .++.                                .++.                               ",
"                           @ .##. @                            @ .##. @                             ",
"                             .++.                                .++.                               ",
".............................$%%$................................$%%$...............................",
"+++++++++++++++++++++++++++#+&**&+#++++++++++++++++++++++++++++#+&**&+#+++++++++++++++++++++++++++++",
"+++++++++++++++#+&**&+#++++++++++++++++++++++#+&**&+#++++++++++++++++++++++#+&**&+#+++++++++++++++++",
".................$%%$..........................$%%$..........................$%%$...................",
"                 .++.                          .++.                          .++.                   ",
"               @ .##. @                      @ .##. @                      @ .##. @                 ",
"                 .++.                          .++.                          .++.                   ",
"                 .++.                          .++.                          .++.                   ",
"                 .++.                          .++.                          .++.                   ",
"                 .++.                          .++.                          .++.                   ",
"                 .++.                          .++.                          .++.                   ",
"                 .++.                          .++.                          .++.                   ",
"                 .++.                          .++.                          .++.                   ",
"                 .++.                          .++.                          .++.                   ",
"                 .++.                          .++.                          .++.                   ",
"                 .++.                          .++.                          .++.                   ",
"                 .++.                          .++.                          .++.                   ",
"                 .++.                          .++.                          .++.                   ",
"                 .++.                          .++.                          .++.                   ",
"                 .++.                          .++.                          .++.                   ",
"                 .++.                          .++.                          .++.                   ",
"                 .++.                          .++.                          .++.                   ",
"                 .++.                          .++.                          .++.                   ",
"                 .++.                          .++.                          .++.                   ",
"               @ .##. @                      @ .##. @                      @ .##. @                 ",
"                 .++.                          .++.                          .++.                   ",
"===============-=;&&;=-======================-=;&&;=-======================-=;&&;=-=================",
"+++++++++++++++#+&**&+#++++++++++++++++++++++#+&**&+#++++++++++++++++++++++#+&**&+#+++++++++++++++++",
">>>>>>>>>>>>>>>>>>>>>>>>>>>>>>>>>>>>>>>>>>>>>>>>>>>>>>>>>>>>>>>>>>>>>>>>>>>>>>>>>>>>>>>>>>>>>>>>>>>>"};
