/* XPM */
static char * wall_xpm[] = {
"15 15 22 1",
" 	c #565C63",
".	c #484D53",
"+	c #52585E",
"@	c #4D5259",
"#	c #464C51",
"$	c #3E4247",
"%	c #454A50",
"&	c #41464C",
"*	c #484E54",
"=	c #40444A",
"-	c #474C52",
";	c #464B51",
">	c #4D5359",
",	c #40454A",
"'	c #494E55",
")	c #51575D",
"!	c #44494F",
"~	c #494E54",
"{	c #555B62",
"]	c #3D4147",
"^	c #474D53",
"/	c #3C4046",
"    .    +@    ",
"    .    +@    ",
"    .    +@    ",
"..#.$..#.%&.#..",
"  *    .    *  ",
"  .    .    .  ",
"  .    .    .  ",
"..=.%..=.-;.=..",
"    .    +>    ",
"    .    +@    ",
"@@>@,>@>@'%>@@@",
"++%)+++!+++%)++",
"  ~{   .   ~{  ",
"  ~{   .   ~{  ",
"..]^.../...]^.."};
