/* XPM */
static char * player_xpm[] = {
"15 15 38 1",
" 	c None",
".	c #C19E05",
"+	c #C9A406",
"@	c #FFED02",
"#	c #AC8805",
"$	c #EED603",
"%	c #FFF200",
"&	c #E0C405",
"*	c #C6A106",
"=	c #FFF100",
"-	c #FEEC02",
";	c #ECD005",
">	c #E2C605",
",	c #B08B05",
"'	c #FDEB02",
")	c #FAE403",
"!	c #DFC205",
"~	c #FFF211",
"{	c #FFF23D",
"]	c #D6B705",
"^	c #F8E203",
"/	c #FFF68B",
"(	c #FFF8AF",
"_	c #F8E342",
":	c #D3B405",
"<	c #FFEA03",
"[	c #FFF35D",
"}	c #FFF9B8",
"|	c #FFF79C",
"1	c #D3B401",
"2	c #CAAC05",
"3	c #FEEB02",
"4	c #FEED01",
"5	c #CEAD05",
"6	c #FEEE57",
"7	c #FEEC60",
"8	c #CAAC04",
"9	c #AF8606",
"               ",
"               ",
"       .       ",
"      +@#      ",
"      $%&      ",
"     *=%-      ",
"     ;%%%>     ",
"    ,'%%%)     ",
"    !%%%~{]    ",
"    ^%%%/(_    ",
"   :%%=<[}|1   ",
"   2345 5678   ",
"     9   9     ",
"               ",
"               "};
