/* XPM */
static char *f95935cdf774483788e48b8d0ae609b8dt7N2Hj1IehqfdBy[] = {
/* columns rows colors chars-per-pixel */
"50 50 8 1 ",
"  c None",
". c black",
"X c #010101",
"o c #020202",
"O c gray1",
"+ c #040404",
"@ c #070707",
"# c #090909",
/* pixels */
"                                                  ",
"                                                  ",
"                                                  ",
"                                                  ",
"                                                  ",
"                                                  ",
"                                                  ",
"                                                  ",
"                                                  ",
"                                                  ",
"                                                  ",
"                                                  ",
"                                                  ",
"                               @                  ",
"                               OO                 ",
"                               OOO                ",
"                               OOOO               ",
"                               OOOOO              ",
"                               OOOOOO             ",
"                               OOOOOOO            ",
"                               OOOOOOOO           ",
"      OOOOOOOOOOOOOOOOOOOOOOOOOOOOOOOOOO          ",
"      OOOOOOOOOOOOOOOOOOOOOOOOOOOOOOOOOOO         ",
"      OOOOOOOOOOOOOOOOOOOOOOOOOOOOOOOOOOOO        ",
"      OOOOOOOOOOOOOOOOOOOOOOOOOOOOOOOOOOOOO       ",
"      OOOOOOOOOOOOOOOOOOOOOOOOOOOOOOOOOOOOO       ",
"      OOOOOOOOOOOOOOOOOOOOOOOOOOOOOOOOOOOO        ",
"      OOOOOOOOOOOOOOOOOOOOOOOOOOOOOOOOOOO         ",
"      OOOOOOOOOOOOOOOOOOOOOOOOOOOOOOOOOO          ",
"                               OOOOOOOO           ",
"                               OOOOOOO            ",
"                               OOOOOO             ",
"                               OOOOO              ",
"                               OOOO               ",
"                               OOO                ",
"                               OO                 ",
"                               #                  ",
"                                                  ",
"                                                  ",
"                                                  ",
"                                                  ",
"                                                  ",
"                                                  ",
"                                                  ",
"                                                  ",
"                                                  ",
"                                                  ",
"                                                  ",
"                                                  ",
"                                                  "
};
