/* XPM */
static char *result[] = {
/* columns rows colors chars-per-pixel */
"50 50 5 1 ",
"  c black",
". c #FFC20E",
"X c #FFF200",
"o c #FFF9BD",
"O c None",
/* pixels */
"OOOOOOOOOOOOOOOOOOOOOOOOOOOOOOOOOOOOOOOOOOOOOOOOOO",
"OOOOOOOOOOOOOOOOOOOOOOOOOOOOOOOOOOOOOOOOOOOOOOOOOO",
"OOOOOOOOOOOOOOOOOOOOOOOOOOOOOOOOOOOOOOOOOOOOOOOOOO",
"OOOOOOOOOOOOOOOOOOOOOOOOOOOOOOOOOOOOOOOOOOOOOOOOOO",
"OOOOOOOOOOOOOOOOOOOOOOOOOOOOOOOOOOOOOOOOOOOOOOOOOO",
"OOOOOOOOOOOOOOOOOOOOOOOOOOOOOOOOOOOOOOOOOOOOOOOOOO",
"OOOOOOOOOOOOOOOOOOOOOOOOOOOOOOOOOOOOOOOOOOOOOOOOOO",
"OOOOOOOOOOOOOOOOOOOOOOOO OOOOOOOOOOOOOOOOOOOOOOOOO",
"OOOOOOOOOOOOOOOOOOOOOOO . OOOOOOOOOOOOOOOOOOOOOOOO",
"OOOOOOOOOOOOOOOOOOOOOO .X. OOOOOOOOOOOOOOOOOOOOOOO",
"OOOOOOOOOOOOOOOOOOOOO .XXX. OOOOOOOOOOOOOOOOOOOOOO",
"OOOOOOOOOOOOOOOOOOOOO .XXX. OOOOOOOOOOOOOOOOOOOOOO",
"OOOOOOOOOOOOOOOOOOOOO .XXXX. OOOOOOOOOOOOOOOOOOOOO",
"OOOOOOOOOOOOOOOOOOOO .XXXXX. OOOOOOOOOOOOOOOOOOOOO",
"OOOOOOOOOOOOOOOOOOOO .XXXXXX. OOOOOOOOOOOOOOOOOOOO",
"OOOOOOOOOOOOOOOOOOO .XXXXXXX. OOOOOOOOOOOOOOOOOOOO",
"OOOOOOOOOOOOOOOOOO .XXXXXXXXX. OOOOOOOOOOOOOOOOOOO",
"OOOOOOOOOOOOOOOOOO .XXXXXXXXX. OOOOOOOOOOOOOOOOOOO",
"OOOOOOOOOOOOOOOOOO .XXXXXXXXXX. OOOOOOOOOOOOOOOOOO",
"OOOOOOOOOOOOOOOOO .XXXXXXXXXXX. OOOOOOOOOOOOOOOOOO",
"OOOOOOOOOOOOOOOOO .XXXXXXXXXXXX. OOOOOOOOOOOOOOOOO",
"OOOOOOOOOOOOOOOO .XXXXXXXXXXXXX. OOOOOOOOOOOOOOOOO",
"OOOOOOOOOOOOOOOO .XXXXXXXXXXXXXX. OOOOOOOOOOOOOOOO",
"OOOOOOOOOOOOOOOO .XXXXXXXXXXXXXX. OOOOOOOOOOOOOOOO",
"OOOOOOOOOOOOOOO .XXXXXXXXXXXXXXX. OOOOOOOOOOOOOOOO",
"OOOOOOOOOOOOOOO .XXXXXXXXXXXXXXXX. OOOOOOOOOOOOOOO",
"OOOOOOOOOOOOOO .XXXXXXXXXXXXXXXXX. OOOOOOOOOOOOOOO",
"OOOOOOOOOOOOOO .XXXXXXXXXXXXXXXXXX. OOOOOOOOOOOOOO",
"OOOOOOOOOOOOO .XXXXXXXXXXXXXXXXXXX. OOOOOOOOOOOOOO",
"OOOOOOOOOOOOO .XXXXXXXXXXXXXXXoXXXX. OOOOOOOOOOOOO",
"OOOOOOOOOOOOO .XXXXXXXXXXXXXXoooXXX. OOOOOOOOOOOOO",
"OOOOOOOOOOOO .XXXXXXXXXXXXXXoooooXXX. OOOOOOOOOOOO",
"OOOOOOOOOOOO .XXXXXXXXXXXXXXooooooXX. OOOOOOOOOOOO",
"OOOOOOOOOOO .XXXXXXXXXXXXXXXoooooooXX. OOOOOOOOOOO",
"OOOOOOOOOOO .XXXXXXXXXXXXXXXXooooooXX. OOOOOOOOOOO",
"OOOOOOOOOO .XXXXXXXXXXXXXXXXXXooooooXX. OOOOOOOOOO",
"OOOOOOOOOO .XXXXXXXXXXX....XXXXoooooXX. OOOOOOOOOO",
"OOOOOOOOOO .XXXXXXXXX..    ..XXXoooXXX. OOOOOOOOOO",
"OOOOOOOOOOO .XXXXXXX.  OOOO  .XXXXXXX. OOOOOOOOOOO",
"OOOOOOOOOOOO ..XXXX. OOOOOOOO .XXXX.. OOOOOOOOOOOO",
"OOOOOOOOOOOOO  .... OOOOOOOOOO ....  OOOOOOOOOOOOO",
"OOOOOOOOOOOOOOO    OOOOOOOOOOOO    OOOOOOOOOOOOOOO",
"OOOOOOOOOOOOOOOOOOOOOOOOOOOOOOOOOOOOOOOOOOOOOOOOOO",
"OOOOOOOOOOOOOOOOOOOOOOOOOOOOOOOOOOOOOOOOOOOOOOOOOO",
"OOOOOOOOOOOOOOOOOOOOOOOOOOOOOOOOOOOOOOOOOOOOOOOOOO",
"OOOOOOOOOOOOOOOOOOOOOOOOOOOOOOOOOOOOOOOOOOOOOOOOOO",
"OOOOOOOOOOOOOOOOOOOOOOOOOOOOOOOOOOOOOOOOOOOOOOOOOO",
"OOOOOOOOOOOOOOOOOOOOOOOOOOOOOOOOOOOOOOOOOOOOOOOOOO",
"OOOOOOOOOOOOOOOOOOOOOOOOOOOOOOOOOOOOOOOOOOOOOOOOOO",
"OOOOOOOOOOOOOOOOOOOOOOOOOOOOOOOOOOOOOOOOOOOOOOOOOO"
};
