/* XPM */
static char *cacba8bf98794508a64507ac9a1008f298SuVv5iG2DeejZ9[] = {
/* columns rows colors chars-per-pixel */
"50 50 2 1 ",
"  c black",
". c #565C63",
/* pixels */
"............... ................. ................",
"............... ................. ................",
"............... ................. ................",
"............... ................. ................",
"............... ................. ................",
"............... ................. ................",
"............... ................. ................",
"............... ................. ................",
"............... ................. ................",
"............... ................. ................",
"............... ................. ................",
"............... ................. ................",
"                                                  ",
"........ ............... ................ ........",
"........ ............... ................ ........",
"........ ............... ................ ........",
"........ ............... ................ ........",
"........ ............... ................ ........",
"........ ............... ................ ........",
"........ ............... ................ ........",
"........ ............... ................ ........",
"........ ............... ................ ........",
"........ ............... ................ ........",
"........ ............... ................ ........",
"........ ............... ................ ........",
"                                                  ",
"............... ................. ................",
"............... ................. ................",
"............... ................. ................",
"............... ................. ................",
"............... ................. ................",
"............... ................. ................",
"............... ................. ................",
"............... ................. ................",
"............... ................. ................",
"............... ................. ................",
"                                                  ",
"......... .............. .............. ..........",
"......... .............. .............. ..........",
"......... .............. .............. ..........",
"......... .............. .............. ..........",
"......... .............. .............. ..........",
"......... .............. .............. ..........",
"......... .............. .............. ..........",
"......... .............. .............. ..........",
"......... .............. .............. ..........",
"......... .............. .............. ..........",
"......... .............. .............. ..........",
"......... .............. .............. ..........",
"                                                  "
};
